<svg width="445" height="250" viewBox="0 0 445 250" fill="none" xmlns="http://www.w3.org/2000/svg">
<rect width="445" height="250" fill="#00123B"/>
<path d="M155.571 107.126V96.6127H151.308V95H161.654V96.6127H157.391V107.126H155.571Z" fill="white"/>
<path d="M165.621 107.298C164.938 107.298 164.339 107.152 163.818 106.866C163.298 106.58 162.893 106.17 162.597 105.645C162.302 105.121 162.157 104.522 162.157 103.852V98.3091H163.889V103.557C163.889 104.24 164.087 104.782 164.488 105.187C164.885 105.593 165.423 105.795 166.093 105.795C166.556 105.795 166.974 105.694 167.349 105.491C167.724 105.289 168.028 105.002 168.257 104.632V98.3091H169.99V107.126H168.257V106.227C167.574 106.945 166.697 107.302 165.621 107.302V107.298Z" fill="white"/>
<path d="M172.035 107.126V98.3091H173.767V99.2079C174.451 98.4941 175.332 98.1328 176.417 98.1328C177.1 98.1328 177.695 98.2782 178.211 98.5646C178.726 98.8554 179.128 99.2564 179.423 99.7763C179.718 100.296 179.864 100.896 179.864 101.579V107.122H178.131V101.874C178.131 101.182 177.933 100.636 177.541 100.235C177.148 99.838 176.611 99.6353 175.927 99.6353C175.464 99.6353 175.05 99.7367 174.689 99.9394C174.323 100.142 174.014 100.428 173.763 100.799V107.122H172.031L172.035 107.126Z" fill="white"/>
<path d="M186.207 110.832C185.572 110.832 184.946 110.757 184.333 110.607C183.721 110.457 183.165 110.241 182.672 109.968L183.346 108.615C183.853 108.871 184.338 109.056 184.792 109.179C185.246 109.303 185.7 109.36 186.154 109.36C186.939 109.36 187.534 109.188 187.931 108.84C188.327 108.492 188.53 107.972 188.53 107.28V106.276C187.767 106.888 186.886 107.192 185.881 107.192C185.061 107.192 184.316 106.989 183.646 106.584C182.976 106.179 182.442 105.632 182.041 104.949C181.645 104.262 181.442 103.504 181.442 102.671C181.442 101.838 181.645 101.063 182.05 100.376C182.456 99.6882 182.993 99.1462 183.672 98.7453C184.347 98.3487 185.101 98.146 185.934 98.146C186.419 98.146 186.886 98.2209 187.327 98.3707C187.772 98.5205 188.186 98.7453 188.565 99.0449V98.3002H190.262V107.254C190.262 108.408 189.914 109.289 189.222 109.902C188.53 110.514 187.525 110.818 186.207 110.818V110.832ZM186.106 105.703C186.604 105.703 187.062 105.61 187.485 105.425C187.908 105.24 188.257 104.985 188.534 104.663V100.68C188.27 100.367 187.922 100.12 187.494 99.935C187.067 99.7499 186.604 99.6574 186.11 99.6574C185.555 99.6574 185.056 99.7851 184.611 100.045C184.166 100.305 183.813 100.662 183.553 101.12C183.293 101.578 183.165 102.094 183.165 102.671C183.165 103.248 183.293 103.746 183.553 104.205C183.813 104.663 184.17 105.024 184.62 105.297C185.07 105.571 185.568 105.703 186.11 105.703H186.106Z" fill="white"/>
<path d="M195.358 107.298C194.595 107.298 193.881 107.183 193.22 106.958C192.555 106.734 191.981 106.408 191.497 105.98L192.431 104.839C192.894 105.209 193.366 105.487 193.851 105.672C194.335 105.857 194.82 105.949 195.305 105.949C195.931 105.949 196.438 105.83 196.83 105.593C197.223 105.355 197.421 105.042 197.421 104.65C197.421 104.328 197.306 104.072 197.073 103.887C196.844 103.702 196.482 103.574 195.997 103.508L194.402 103.284C193.511 103.156 192.85 102.887 192.418 102.469C191.986 102.05 191.77 101.499 191.77 100.807C191.77 100.287 191.915 99.8247 192.202 99.4238C192.488 99.0184 192.894 98.71 193.414 98.4896C193.934 98.2693 194.534 98.1592 195.217 98.1592C195.9 98.1592 196.495 98.2473 197.082 98.428C197.664 98.6086 198.228 98.8906 198.77 99.2872L197.902 100.428C197.403 100.107 196.932 99.8688 196.482 99.719C196.033 99.5692 195.57 99.4943 195.098 99.4943C194.565 99.4943 194.137 99.6088 193.815 99.8336C193.493 100.058 193.33 100.349 193.33 100.71C193.33 101.045 193.445 101.296 193.679 101.464C193.908 101.631 194.274 101.755 194.772 101.838L196.385 102.063C197.262 102.191 197.928 102.46 198.378 102.878C198.827 103.292 199.052 103.848 199.052 104.539C199.052 105.059 198.889 105.531 198.558 105.949C198.228 106.372 197.791 106.703 197.24 106.945C196.694 107.188 196.063 107.311 195.358 107.311V107.298Z" fill="white"/>
<path d="M203.954 107.28C203.112 107.28 202.464 107.082 202.014 106.69C201.565 106.297 201.34 105.716 201.34 104.94V99.7629H199.466V98.3089H201.34V96.0749L203.055 95.6431V98.3089H205.673V99.7629H203.055V104.561C203.055 105.002 203.156 105.315 203.359 105.504C203.562 105.694 203.892 105.791 204.355 105.791C204.597 105.791 204.813 105.773 205.003 105.738C205.193 105.703 205.4 105.645 205.62 105.566V107.038C205.391 107.117 205.122 107.179 204.813 107.218C204.509 107.258 204.223 107.28 203.954 107.28Z" fill="white"/>
<path d="M211.007 107.28C210.138 107.28 209.358 107.082 208.657 106.681C207.956 106.28 207.401 105.734 206.987 105.037C206.572 104.337 206.361 103.561 206.361 102.706C206.361 101.852 206.559 101.085 206.96 100.402C207.357 99.7191 207.895 99.1771 208.565 98.7629C209.235 98.3531 209.984 98.146 210.817 98.146C211.65 98.146 212.351 98.3531 212.99 98.7629C213.63 99.1727 214.141 99.7279 214.516 100.424C214.89 101.125 215.08 101.909 215.08 102.79V103.257H208.115C208.194 103.755 208.371 104.191 208.644 104.566C208.917 104.94 209.266 105.24 209.693 105.465C210.121 105.69 210.584 105.804 211.077 105.804C211.518 105.804 211.932 105.734 212.325 105.597C212.717 105.46 213.048 105.275 213.312 105.042L214.405 106.117C213.907 106.509 213.383 106.8 212.827 106.994C212.272 107.183 211.668 107.28 211.007 107.28ZM208.128 101.962H213.361C213.281 101.512 213.114 101.111 212.867 100.759C212.62 100.406 212.316 100.129 211.959 99.9261C211.602 99.7235 211.201 99.6221 210.764 99.6221C210.328 99.6221 209.922 99.7235 209.552 99.9261C209.182 100.129 208.873 100.402 208.626 100.75C208.38 101.098 208.212 101.499 208.133 101.962H208.128Z" fill="white"/>
<path d="M216.724 107.126V98.3091H218.456V99.2079C219.14 98.4941 220.021 98.1328 221.106 98.1328C221.789 98.1328 222.384 98.2782 222.9 98.5646C223.415 98.8554 223.817 99.2564 224.112 99.7763C224.407 100.296 224.553 100.896 224.553 101.579V107.122H222.82V101.874C222.82 101.182 222.622 100.636 222.23 100.235C221.837 99.838 221.3 99.6353 220.616 99.6353C220.154 99.6353 219.739 99.7367 219.378 99.9394C219.012 100.142 218.703 100.428 218.452 100.799V107.122H216.72L216.724 107.126Z" fill="white"/>
<path d="M165.961 147.549C164.052 147.549 162.271 147.214 160.618 146.54C158.965 145.866 157.519 144.927 156.285 143.716C155.051 142.504 154.081 141.098 153.384 139.494C152.688 137.891 152.34 136.159 152.34 134.299C152.34 132.44 152.688 130.708 153.384 129.104C154.081 127.501 155.051 126.095 156.285 124.883C157.519 123.672 158.965 122.729 160.618 122.059C162.271 121.385 164.052 121.05 165.961 121.05C167.869 121.05 169.615 121.385 171.268 122.059C172.921 122.733 174.362 123.672 175.601 124.883C176.835 126.095 177.796 127.501 178.484 129.104C179.167 130.708 179.511 132.44 179.511 134.299C179.511 136.159 179.167 137.891 178.484 139.494C177.796 141.098 176.835 142.504 175.601 143.716C174.367 144.927 172.921 145.87 171.268 146.54C169.615 147.214 167.847 147.549 165.961 147.549ZM165.961 142.667C167.111 142.667 168.178 142.451 169.156 142.024C170.135 141.596 170.995 141.01 171.726 140.261C172.463 139.516 173.036 138.626 173.454 137.6C173.869 136.573 174.08 135.471 174.08 134.295C174.08 133.119 173.873 131.96 173.454 130.955C173.04 129.95 172.463 129.078 171.726 128.329C170.99 127.584 170.135 126.994 169.156 126.566C168.178 126.139 167.124 125.923 166 125.923C164.876 125.923 163.743 126.139 162.752 126.566C161.76 126.994 160.896 127.58 160.164 128.329C159.428 129.074 158.855 129.95 158.436 130.955C158.022 131.96 157.81 133.048 157.81 134.22C157.81 135.392 158.017 136.569 158.436 137.595C158.85 138.622 159.428 139.512 160.164 140.257C160.9 141.001 161.76 141.592 162.752 142.019C163.743 142.447 164.815 142.662 165.965 142.662L165.961 142.667Z" fill="white"/>
<path d="M182.813 147.148V128.025H187.842V129.492C189.213 128.267 190.879 127.659 192.837 127.659C194.084 127.659 195.199 127.91 196.178 128.413C197.157 128.915 197.963 129.62 198.602 130.523C199.387 129.594 200.317 128.884 201.393 128.395C202.468 127.906 203.658 127.659 204.954 127.659C206.374 127.659 207.63 127.985 208.719 128.633C209.808 129.281 210.663 130.175 211.289 131.312C211.915 132.449 212.223 133.766 212.223 135.26V147.152H207.194V136.031C207.194 134.784 206.868 133.797 206.22 133.074C205.572 132.352 204.694 131.991 203.592 131.991C202.834 131.991 202.142 132.145 201.516 132.449C200.89 132.753 200.361 133.237 199.92 133.898C199.943 134.119 199.969 134.339 199.995 134.559C200.017 134.78 200.031 135.013 200.031 135.256V147.148H195.001V136.027C195.001 134.78 194.675 133.793 194.027 133.07C193.379 132.347 192.502 131.986 191.4 131.986C190.641 131.986 189.963 132.132 189.363 132.427C188.764 132.722 188.257 133.163 187.838 133.749V147.144H182.808L182.813 147.148Z" fill="white"/>
<path d="M216.08 147.148V128.025H221.11V129.602C222.578 128.307 224.377 127.659 226.51 127.659C227.978 127.659 229.283 127.985 230.42 128.633C231.557 129.281 232.443 130.175 233.082 131.312C233.717 132.449 234.039 133.766 234.039 135.26V147.152H229.045V136.031C229.045 134.784 228.683 133.797 227.96 133.074C227.237 132.352 226.263 131.991 225.042 131.991C224.187 131.991 223.424 132.154 222.768 132.484C222.106 132.815 221.555 133.286 221.115 133.898V147.148H216.085H216.08Z" fill="white"/>
<path d="M240.391 125.747C239.606 125.747 238.936 125.465 238.372 124.901C237.808 124.337 237.526 123.654 237.526 122.847C237.526 122.041 237.808 121.398 238.372 120.847C238.936 120.296 239.606 120.023 240.391 120.023C241.176 120.023 241.877 120.296 242.428 120.847C242.979 121.398 243.252 122.063 243.252 122.847C243.252 123.632 242.979 124.341 242.428 124.901C241.877 125.465 241.198 125.747 240.391 125.747ZM237.892 147.148V128.025H242.921V147.148H237.892Z" fill="white"/>
<path d="M247.219 147.148V121.455H260.108C261.797 121.455 263.291 121.803 264.587 122.499C265.883 123.196 266.892 124.152 267.615 125.363C268.338 126.575 268.7 127.963 268.7 129.527C268.7 131.092 268.338 132.405 267.615 133.603C266.892 134.802 265.878 135.745 264.569 136.428C263.26 137.115 261.77 137.454 260.108 137.454H252.544V147.144H247.219V147.148ZM252.544 133.052H259.522C260.673 133.052 261.598 132.726 262.295 132.079C262.991 131.431 263.339 130.594 263.339 129.563C263.339 128.532 262.991 127.624 262.295 126.976C261.598 126.328 260.673 126.002 259.522 126.002H252.544V133.048V133.052Z" fill="white"/>
<path d="M277.291 147.479C275.947 147.479 274.743 147.227 273.694 146.725C272.64 146.223 271.821 145.531 271.234 144.65C270.648 143.768 270.353 142.755 270.353 141.605C270.353 139.768 271.036 138.344 272.407 137.331C273.778 136.318 275.686 135.806 278.133 135.806C279.799 135.806 281.364 136.062 282.832 136.577V135.181C282.832 134.079 282.488 133.246 281.805 132.687C281.117 132.123 280.117 131.841 278.794 131.841C278.01 131.841 277.141 131.969 276.189 132.224C275.232 132.48 274.157 132.881 272.958 133.418L271.159 129.673C272.676 129.012 274.122 128.51 275.492 128.166C276.863 127.822 278.234 127.65 279.605 127.65C282.224 127.65 284.243 128.267 285.662 129.505C287.081 130.744 287.791 132.484 287.791 134.736V147.144H282.832V145.787C282.047 146.373 281.205 146.804 280.297 147.073C279.389 147.342 278.389 147.479 277.287 147.479H277.291ZM275.127 141.495C275.127 142.231 275.444 142.812 276.083 143.24C276.718 143.667 277.564 143.883 278.618 143.883C279.451 143.883 280.214 143.786 280.914 143.588C281.611 143.394 282.254 143.072 282.841 142.632V139.842C282.228 139.574 281.593 139.384 280.932 139.274C280.271 139.164 279.561 139.111 278.803 139.111C277.652 139.111 276.753 139.318 276.105 139.737C275.457 140.151 275.131 140.741 275.131 141.499L275.127 141.495Z" fill="white"/>
<path d="M301.271 155C299.777 155 298.344 154.846 296.973 154.542C295.602 154.233 294.355 153.801 293.226 153.237L294.989 149.347C296.065 149.862 297.105 150.245 298.11 150.501C299.115 150.757 300.129 150.884 301.156 150.884C302.624 150.884 303.744 150.558 304.515 149.911C305.287 149.263 305.67 148.302 305.67 147.029V145.522C304.105 146.65 302.351 147.209 300.42 147.209C298.635 147.209 296.999 146.773 295.518 145.905C294.037 145.037 292.869 143.861 292.01 142.38C291.154 140.9 290.722 139.256 290.722 137.445C290.722 135.634 291.159 133.995 292.027 132.528C292.896 131.061 294.077 129.897 295.571 129.043C297.066 128.188 298.741 127.756 300.601 127.756C301.505 127.756 302.399 127.884 303.281 128.139C304.163 128.395 304.969 128.769 305.705 129.258V128.011H310.7V147.099C310.7 149.62 309.884 151.563 308.258 152.933C306.631 154.304 304.299 154.987 301.262 154.987L301.271 155ZM301.231 142.997C302.135 142.997 302.968 142.843 303.726 142.539C304.484 142.235 305.132 141.799 305.67 141.235V133.784C305.106 133.22 304.445 132.792 303.687 132.497C302.928 132.202 302.109 132.056 301.227 132.056C300.173 132.056 299.23 132.294 298.401 132.77C297.568 133.246 296.907 133.898 296.418 134.718C295.928 135.537 295.681 136.449 295.681 137.454C295.681 138.507 295.919 139.45 296.396 140.278C296.872 141.111 297.533 141.772 298.379 142.261C299.226 142.75 300.173 142.997 301.227 142.997H301.231Z" fill="white"/>
<path d="M323.999 147.514C322.09 147.514 320.358 147.069 318.802 146.174C317.246 145.28 316.016 144.094 315.112 142.614C314.209 141.133 313.755 139.463 313.755 137.604C313.755 135.745 314.191 134.097 315.059 132.594C315.928 131.087 317.109 129.897 318.604 129.016C320.098 128.135 321.751 127.694 323.563 127.694C325.374 127.694 327.032 128.139 328.464 129.034C329.897 129.928 331.021 131.144 331.841 132.687C332.661 134.229 333.071 135.991 333.071 137.974V139.296H318.899C319.119 140.054 319.485 140.741 320.001 141.349C320.517 141.962 321.138 142.433 321.874 142.764C322.61 143.094 323.404 143.257 324.259 143.257C325.114 143.257 325.877 143.129 326.609 142.874C327.345 142.618 327.966 142.244 328.482 141.755L331.788 144.764C330.611 145.72 329.408 146.417 328.169 146.857C326.935 147.298 325.542 147.518 324.003 147.518L323.999 147.514ZM318.824 135.696H328.151C327.953 134.938 327.631 134.273 327.177 133.696C326.723 133.123 326.181 132.673 325.542 132.356C324.907 132.039 324.219 131.88 323.488 131.88C322.703 131.88 321.993 132.034 321.359 132.339C320.724 132.647 320.19 133.083 319.763 133.66C319.335 134.238 319.022 134.916 318.828 135.696H318.824Z" fill="white"/>
<path d="M339.238 131.545V122.477H335.53V121.451H344.087V122.477H340.379V131.545H339.242H339.238ZM346.031 131.545V121.451H347.498L351.06 128.646L354.587 121.451H356.019V131.545H354.882V122.958L351.025 130.849L347.168 122.958V131.545H346.031Z" fill="white"/>
<path d="M134.513 151.616H91.7639C90.2387 151.616 89 150.378 89 148.853V97.9698C89 96.4452 90.2387 95.207 91.7639 95.207H126.297C127.037 95.207 127.729 95.4934 128.25 96.0178L136.466 104.231C136.986 104.751 137.277 105.447 137.277 106.183V148.853C137.277 150.378 136.039 151.616 134.513 151.616ZM92.4824 148.139H133.799V106.483L126.001 98.688H92.4824V148.139Z" fill="white"/>
<path d="M113.139 141.38C103.789 141.38 96.1852 133.779 96.1852 124.434C96.1852 115.088 103.789 107.487 113.139 107.487C122.488 107.487 130.092 115.088 130.092 124.434C130.092 133.779 122.488 141.38 113.139 141.38ZM106.28 136.965C108.316 138.084 110.657 138.723 113.139 138.723C115.92 138.723 118.517 137.926 120.716 136.547L117.719 128.241C117.115 128.963 116.343 129.545 115.466 129.92L106.28 136.97V136.965ZM99.0946 121.781C98.9315 122.64 98.8477 123.526 98.8477 124.434C98.8477 128.822 100.84 132.757 103.966 135.379L110.996 129.986C110.088 129.633 109.286 129.065 108.656 128.342L99.0946 121.781ZM119.085 124.191L122.929 134.837C125.697 132.228 127.43 128.532 127.43 124.438C127.43 123.24 127.28 122.072 127.002 120.957L118.054 121.081C118.666 121.975 119.041 123.041 119.09 124.191H119.085ZM113.139 121.147C111.323 121.147 109.846 122.623 109.846 124.438C109.846 126.254 111.323 127.73 113.139 127.73C114.955 127.73 116.432 126.254 116.432 124.438C116.432 122.623 114.955 121.147 113.139 121.147ZM99.8836 119.098L107.197 124.117C107.249 123.121 107.549 122.187 108.039 121.376L111.327 110.263C106.125 110.924 101.788 114.392 99.888 119.093L99.8836 119.098ZM114.122 110.184L111.605 118.684C112.09 118.556 112.601 118.485 113.126 118.485L126.041 118.305C123.877 113.766 119.385 110.541 114.117 110.184H114.122Z" fill="url(#paint0_linear_104_7905)"/>
<defs>
<linearGradient id="paint0_linear_104_7905" x1="101.158" y1="136.414" x2="125.11" y2="112.448" gradientUnits="userSpaceOnUse">
<stop stop-color="#00A0FB"/>
<stop offset="1" stop-color="#00EB86"/>
</linearGradient>
</defs>
</svg>
